<svg id="icon-upload" xmlns="http://www.w3.org/2000/svg" width="23" height="20" viewBox="0 0 23 20">
  <path id="Path_77" data-name="Path 77" d="M913.252,597.906a.788.788,0,1,1,0-1.576h2.28a2.755,2.755,0,1,0,0-5.51.841.841,0,0,1-.687-.292.776.776,0,0,1-.162-.651,2.849,2.849,0,0,0,.057-.554,2.754,2.754,0,0,0-4.085-2.412.8.8,0,0,1-.377.095.794.794,0,0,1-.756-.55,4.922,4.922,0,0,0-9.613,1.45,4.791,4.791,0,0,0,.506,2.144.784.784,0,0,1-.364,1.056,2.733,2.733,0,0,0-1.57,2.468,2.769,2.769,0,0,0,2.775,2.756h2.668a.788.788,0,1,1,0,1.576h-2.668a4.352,4.352,0,0,1-4.362-4.332,4.3,4.3,0,0,1,1.81-3.5,6.332,6.332,0,0,1-.382-2.169,6.513,6.513,0,0,1,12.4-2.727,4.246,4.246,0,0,1,1.239-.188,4.351,4.351,0,0,1,4.362,4.329l.011,0a4.293,4.293,0,0,1,3.558,4.25,4.352,4.352,0,0,1-4.362,4.332Z" transform="translate(-896.894 -581.448)"/>
  <path id="Path_78" data-name="Path 78" d="M908.394,601.448a.791.791,0,0,1-.793-.787v-6.6l-.787.781a.794.794,0,0,1-1.121,0,.784.784,0,0,1,0-1.117l2.138-2.123a.777.777,0,0,1,.263-.173.8.8,0,0,1,.862.175l2.138,2.124a.788.788,0,0,1-.56,1.344.791.791,0,0,1-.561-.231l-.787-.781v6.6A.791.791,0,0,1,908.394,601.448Z" transform="translate(-896.894 -581.448)"/>
</svg>
